<?xml version="1.0" encoding="UTF-8"?>
<svg width="833px" height="833px" viewBox="0 0 833 833" version="1.1" xmlns="http://www.w3.org/2000/svg" xmlns:xlink="http://www.w3.org/1999/xlink">
    <!-- Generator: Sketch 46.1 (44463) - http://www.bohemiancoding.com/sketch -->
    <title>e-health</title>
    <desc>Created with Sketch.</desc>
    <defs></defs>
    <g id="Page-1" stroke="none" stroke-width="1" fill="none" fill-rule="evenodd">
        <g id="e-health" fill-rule="nonzero" fill="#68BF6A">
            <g id="Layer_5_xA0_Image_1_">
                <path d="M417.666667,1 C648.333333,1 832.333333,186.333333 832.333333,418.333333 C832.333333,647.666667 645.666667,833 413.666667,833 C188.333333,833 0.333333333,645 0.333333333,418.333333 C0.333333333,181 196.333333,-3 417.666667,1 Z M415,791.666667 C615,793 792.333333,634.333333 792.333333,417 C793.666667,205 624.333333,43.6666667 423,39.6666667 C215,35.6666667 41.6666667,203.666667 40.3333333,406.333333 C40.3333333,621 204.333333,790.333333 415,791.666667 Z" id="Shape"></path>
                <path d="M417.666667,330.333333 C420.333333,323.666667 421.666667,317 424.333333,310.333333 C441.666667,258.333333 492.333333,225 540.333333,230.333333 C595,237 637.666667,281 644.333333,335.666667 C647,361 644.333333,386.333333 635,410.333333 C631,419.666667 627,423.666667 616.333333,423.666667 C592.333333,422.333333 568.333333,423.666667 544.333333,423.666667 C535,423.666667 529.666667,426.333333 527,435.666667 C521.666667,449 516.333333,462.333333 508.333333,479.666667 C497.666667,425 488.333333,374.333333 479,323.666667 C477.666667,323.666667 476.333333,323.666667 476.333333,322.333333 C469.666667,339.666667 460.333333,355.666667 456.333333,374.333333 C448.333333,410.333333 429.666667,423.666667 391,421 C333.666667,417 277.666667,422.333333 220.333333,423.666667 C215,423.666667 209.666667,425 205.666667,417 C183,373 188.333333,310.333333 220.333333,271.666667 C249.666667,237 287,221 332.333333,233 C377.666667,245 404.333333,277 416.333333,322.333333 C415,325 413.666667,327.666667 417.666667,330.333333 Z" id="Shape"></path>
                <path d="M209.666667,445 C287,449 361.666667,447.666667 435,450.333333 C443,450.333333 447,449 451,441 C456.333333,426.333333 464.333333,411.666667 471,394.333333 C481.666667,445 492.333333,493 501.666667,541 C503,541 504.333333,541 505.666667,541 C508.333333,533 512.333333,523.666667 515,515.666667 C520.333333,499.666667 528.333333,483.666667 531,467.666667 C535,451.666667 543,447.666667 557.666667,449 C579,450.333333 600.333333,449 623,449 C607,482.333333 583,511.666667 557.666667,538.333333 C519,579.666667 475,615.666667 427,649 C420.333333,653 416.333333,655.666667 408.333333,650.333333 C336.333333,599.666667 268.333333,543.666667 220.333333,467.666667 C217.666667,462.333333 215,455.666667 209.666667,445 Z" id="Shape"></path>
            </g>
        </g>
    </g>
</svg>